/* XPM */
static char *result[] = {
/* columns rows colors chars-per-pixel */
"50 50 200 2 ",
"   c #753E29",
".  c #794735",
"X  c #7E4734",
"o  c #884727",
"O  c #81442A",
"+  c #854A31",
"@  c #894E33",
"#  c #874A3C",
"$  c #8C5434",
"%  c #8E553B",
"&  c #90573C",
"*  c #935B3E",
"=  c #9D6B3B",
"-  c #AC6537",
";  c #8E5B44",
":  c #925B40",
">  c #9A624A",
",  c #9E694C",
"<  c #9B705E",
"1  c #A0694D",
"2  c #A8784D",
"3  c #A77253",
"4  c #AA7555",
"5  c #AE7E58",
"6  c #9C7364",
"7  c #AD8431",
"8  c #AF8153",
"9  c #AD8259",
"0  c #B6875A",
"q  c #AD8269",
"w  c #BC8D61",
"e  c #B88967",
"r  c #BF9164",
"t  c #AF8870",
"y  c #B4A67D",
"u  c #CF984F",
"i  c #D69344",
"p  c #DD9244",
"a  c #C18B56",
"s  c #D89C5F",
"d  c #E59346",
"f  c #E4964B",
"g  c #E59A4C",
"h  c #EC9A4D",
"j  c #F19C43",
"k  c #E79B57",
"l  c #F6A04A",
"z  c #C3946C",
"x  c #C8986A",
"c  c #D39D66",
"v  c #C39A72",
"b  c #C99C72",
"n  c #C99A76",
"m  c #D19F7A",
"M  c #D7A269",
"N  c #DCA56E",
"B  c #CCA077",
"V  c #C2A77C",
"C  c #CDA37B",
"Z  c #D7A677",
"A  c #DCA976",
"S  c #D2A57A",
"D  c #DEAD7A",
"F  c #DDB07F",
"G  c #E9A567",
"H  c #EEA96B",
"J  c #F1AA6C",
"K  c #E2AB71",
"L  c #EBAC73",
"P  c #E2AE7B",
"I  c #EAAF79",
"U  c #F1AE7A",
"Y  c #E4B17E",
"T  c #F1B07D",
"R  c #0FB9AE",
"E  c #13B7AD",
"W  c #10B9AE",
"Q  c #18B8AE",
"!  c #1ABAB0",
"~  c #29BBB2",
"^  c #18CEBA",
"/  c #2DC5A9",
"(  c #33C7A8",
")  c #36C8A8",
"_  c #25CDB5",
"`  c #28CFB7",
"'  c #3BC1B7",
"]  c #2AD3BB",
"[  c #5CCDAF",
"{  c #45C6B2",
"}  c #5AC6B8",
"|  c #59D3BD",
" . c #79D1B8",
".. c #67BFC4",
"X. c #00D7CA",
"o. c #0CD6CA",
"O. c #02D9CD",
"+. c #0ADBCF",
"@. c #17D6C7",
"#. c #12DBCE",
"$. c #04DCD2",
"%. c #0CDBD0",
"&. c #14DCD1",
"*. c #1BDDD2",
"=. c #28D8C9",
"-. c #24DFD4",
";. c #2BDFD5",
":. c #33DFD6",
">. c #05E2D5",
",. c #0BE2D6",
"<. c #2AE1D7",
"1. c #2CE0D6",
"2. c #34E1D7",
"3. c #3AE1D7",
"4. c #36E5DB",
"5. c #3BE2D8",
"6. c #51D7C4",
"7. c #74D2C6",
"8. c #43E3DA",
"9. c #4BE4DB",
"0. c #54E6DD",
"q. c #5CE7DE",
"w. c #67E3D7",
"e. c #62E8DF",
"r. c #57D0EB",
"t. c #40D0F1",
"y. c #54D2F2",
"u. c #6AD1EE",
"i. c #74D1ED",
"p. c #66D6FA",
"a. c #4AEAE3",
"s. c #58EAE2",
"d. c #64E7E0",
"f. c #64E8E0",
"g. c #6BE9E2",
"h. c #73EAE3",
"j. c #7BEBE4",
"k. c #77EDE8",
"l. c #73F2EA",
"z. c #AF9B98",
"x. c #A8AC8B",
"c. c #B7B48C",
"v. c #ADB996",
"b. c #8DBFB9",
"n. c #97BFB9",
"m. c #B6A8AB",
"M. c #C3AB84",
"N. c #D5AC85",
"B. c #DDB284",
"V. c #DBB28A",
"C. c #DBB693",
"Z. c #E4B383",
"A. c #E9B583",
"S. c #ECBA86",
"D. c #E2B68C",
"F. c #E4B98D",
"G. c #EDBA8B",
"H. c #F3B584",
"J. c #F1B789",
"K. c #F8B98A",
"L. c #E7B495",
"P. c #E5BC94",
"I. c #EABE93",
"U. c #BDC49F",
"Y. c #99CCAF",
"T. c #86CEB3",
"R. c #94CEB2",
"E. c #86D1B6",
"W. c #8AD0B6",
"Q. c #96D0B4",
"!. c #A2CCAC",
"~. c #ACCCAB",
"^. c #BBC9A6",
"/. c #A0D2B8",
"(. c #B9D5BC",
"). c #F5C68C",
"_. c #ECC097",
"`. c #E7C19B",
"'. c #ECC39B",
"]. c #F6C493",
"[. c #F1C69C",
"{. c #F4C89E",
"}. c #C9C7A3",
"|. c #E7C8A3",
" X c #F1C7A0",
".X c #F4CAA2",
"XX c #F8CEA6",
"oX c #F7CEA8",
"OX c #F6D3A7",
"+X c #FED5AC",
"@X c #FFDBAE",
"#X c #FEDEB2",
"$X c #FFE3BA",
"%X c #8DC9CB",
"&X c #BCC9C7",
"*X c #96D6F6",
"=X c #AADDFF",
"-X c #B5DEFD",
";X c #81ECE5",
":X c #82F3EC",
/* pixels */
"X.8.j.#.O.%.O.O.+.*.2.0.g.h.h.e.0.5.0.g.e.q.q.5.&.+.<.3.9.0.0.0.q.e.j.e.-.X.X.+.+.%.$.+.+.O.O.O.O.+.",
"-.j.1.X.+.+.+.+.+.X.X.$.+.*.<.5.8.q.j.q.5.<.8.g.e.q.h.e.8.2.1.1.1.4.8.e.k.5.#.+.X.O.O.X.O.+.&.<.8.0.",
"j.8.X.$.+.+.+.+.+.+.+.+.O.X.O.X.X.0.d.+.O.O.X.*.g.;X9.O.O.O.X.X.X.O.O.O.;.e.j.0.8.8.8.9.9.0.0.8.1.#.",
"9.X.+.%.+.+.+.+.+.+.+.+.%.%.%.O.2.g.#.O.%.%.%.X.8.j.*.O.+.#.+.+.%.%.+.+.X.+.9.j.h.h.g.q.8.1.&.+.O.O.",
"X.O.+.+.+.+.%.+.+.+.+.+.%.%.X.%.g.;.X.%.%.+.%.O.<.g.-.O.+.+.+.+.+.+.+.+.%.+.X.s.q.&.+.O.O.X.O.+.&.+.",
"%.%.+.+.+.+.+.+.+.+.+.$.$.%.X.8.q.X.+.+.+.+.%.X.+.d.<.O.+.+.+.+.+.+.+.+.+.%.X.2.q.O.O.+.+.+.+.+.+.+.",
"+.%.+.+.+.+.+.+.+.+.+.%.%.O.&.g.*.X.%.+.+.+.+.+. .(.2.O.+.+.+.+.+.+.+.+.+.%.X.<.0.+.+.+.+.+.+.+.+.+.",
"+.+.+.+.+.+.+.+.+.+.+.%.%.X.9.9.X.%.%.%.+.+.$. .S.S.Q.+.+.+.+.+.+.+.+.+.+.+.X.*.9.+.O.+.+.+.+.+.+.+.",
"+.+.+.+.+.+.+.+.+.+.+.+.X.*.g.&.O.+.+.%.+.$.W.J.c s H.Y.o.$.%.+.+.+.+.+.+.+.O.&.8.,.O.+.+.+.+.+.+.+.",
"+.+.+.+.+.+.+.+.+.+.+.+.X.q.9.X.+.+.+.%.$.E.J.Z.N M Z.H.Y.%.%.+.+.+.+.+.+.+.O.%.3.%.+.+.+.+.+.+.+.+.",
"O.+.+.+.+.+.+.+.+.+.+.O.<.h.+.+.+.%.%.O.R.G.D G k c s Z.H.Y.%.+.+.+.+.+.+.+.+.+.2.#.O.+.+.+.+.+.+.+.",
"O.+.+.+.+.+.+.+.+.+.+.O.g.8.X.+.+.+.$.R.J.D H M.7.%XL.J D H.!.%.+.+.+.+.+.+.O.+.8.*.O.+.+.+.+.+.+.+.",
"O.$.+.+.+.+.+.+.+.+.X.5.h.+.O.+.+.+.R.J.B.H V r.t.u.-Xc.G Z.H.!.#.%.%.+.+.+.O.+.9.*.X.+.+.+.+.$.+.+.",
"*.O.+.+.+.+.+.O.O.X.#.k.5.O.+.+.+.Q.T M k N.r.r.*Xu.i.-XC.k c U ~.#.$.+.+.+.+.+.q.<.X.+.+.+.+.+.+.+.",
"8.O.+.+.+.X.O.+.*.5.g.q.+.O.+.+.R.J.D p x.=Xy.u.=X*X*X-Xp.x.f S H.!.#.+.+.%.O.&.h.2.X.,.+.+.+.+.+.+.",
"g.&.X.+.*.<.5.q.g.h.;Xq.X.+.+./.H.D P.k v.&Xm.b.n.n.&Xn...v.k D.Y T ~.&.$.#.X.-.j.e.+.X.+.+.+.+.+.+.",
"g.s.0.0.9.8.3.<.<.+.*.g.9.O.~.K.Z.P P Z.I H L L K L K K H L Z.B.P F K.U.@.O.+.s.g.g.h.<.X.+.+.+.+.+.",
"e.g.8.*.+.$.X.O.X.+.X.+.q.^.U.u D B.Z.A Z.A.Z.Z.S.A.Z.A.G.G.N P F._.i U.^.@.8.g.#.&.9.g.9.&.X.+.+.+.",
"h.1.X.O.+.+.+.+.+.+.>.o.U.(.6.i V.N.{.P I. X{.[.V.I..X XI.D.P  X'.C.d ^  .|.q.O.X.O.X.&.0.f.8.+.X.O.",
"j.2.X.+.+.+.+.+.+.+.=.}.Y.$.6.p '.oX.XP '. XXXXXV.D..XoXv 0 ].'.5 r h ) a.(.U.=.%.%.%.O.X.*.9.d.8.&.",
"e.e.X.+.+.+.+.+.+.$.| E.#.$._ p '.I.C P '.I.z x w 5 [..Xb C A.I.C N.g W.s.+.T.}.=.$.+.+.+.O.X.*.0.g.",
"1.h.&.X.%.+.+.+.+.+.O.$.%.$._ p Z.P c N P A a 0 a M S.A.c N N P S.Z.d  .%.O.+.| =.$.+.+.+.+.%.O.X.<.",
"+.f.5.O.+.+.+.+.+.+.+.+.+.$.] p P. X{.P G.I.+X$X+X_.w 0 = S A.I.'.`.d ) $.+.+.$.$.+.+.+.+.+.+.%.%.X.",
"O.8.d.O.+.+.+.+.+.+.+.+.+.$._ g N.n  XP [.+XD.v 2 2 0 N.P.{.P '.oX Xd / $.+.+.+.+.+.+.+.+.+.+.+.%.%.",
"O.<.g.*.O.+.+.+.+.+.+.+.+.$._ g B z {.Y ].D.2 z Z.OX#X+X+X'.P I. X`.g ) $.%.+.+.+.+.+.+.+.+.+.+.+.+.",
"O.+.g.5.O.+.+.+.+.+.+.+.%.$._ g C b XXY 2 $ z m m v z z m '.P I. X`.d ) $.%.%.+.+.+.+.+.+.+.+.+.+.+.",
"+.O.q.q.O.+.+.+.+.+.%.+.$.$.` g b r XXA Z ,   o   O O   : [.P _.{.`.d ( $.%.%.+.+.+.%.$.+.+.+.+.+.+.",
"+.X.9.g.+.O.+.+.+.+.+.+.+.$._ g V.8 b Z.@X3 O z.m.m.z.@ 1 {.P _.XX|.d ( $.%.+.+.+.+.O.+.+.+.+.+.+.+.",
"%.X.2.h.-.O.+.+.+.+.+.+.%.$.` g C w V.Y [.3 + < 6 6 < @ 1 [.P _.I.D.f ) >.+.+.+.+.+.+.+.+.+.+.+.+.+.",
"+.X.<.h.<.O.+.+.+.+.+.+.+.$.] p 2 B XXF {.4 + o o o o @ 1 [.P XXn y h { $.+.+.+.+.+.+.+.+.+.+.+.+.+.",
"+.O.*.h.2.O.+.+.+.+.+.+.+.$.] p 9 '.[.D {.3 + : : % : @ 1 [.K XXB r g [ O.+.+.+.+.+.+.+.+.+.$.+.+.+.",
"+.O.&.g.5.O.+.+.+.+.+.+.%.$.] p 8 _.{.P {.3 + & & # = 7 > '.A.G.2 N.h [ X.X.+.+.+.+.+.+.+.+.+.+.+.+.",
"+.O.&.g.5.X.+.+.+.+.%.+.+.$._ p 9 `.{.D {.3 + % % % & @ , '.S.D.0 `.h E.9.*.O.X.+.%.+.+.+.+.+.+.+.%.",
"+.+.&.g.2.X.+.+.+.+.O.O.+.<.7.i 8 P.'.A [.3 + % % % % + , _.S.b 9 `.g  .k.k.0.<.+.X.+.+.+.+.+.+.%.X.",
"+.O.&.e.<.X.+.+.O.O.#.8.g.g.w.j w OX#XS.#X5 @ * * & * $ 3 @X).0 V.$Xl ) &.8.g.j.d.<.+.O.+.+.+.+.X.<.",
"O.X.<.e.#.O.+.*.<.q.j.h.8.%._ - ; q e 4 e ;   . X X X . # t 4 > q t - / $.X.+.:.q.j.h.5.+.X.X.+.0.j.",
"&.2.q.g.0.0.e.j.;Xg.8.#.O.O.+.Q ! Q Q W R { %X} ! W W '  .} ~ W R E Q o.+.+.O.O.X.<.0.j.h.5.1.g.g.*.",
"e.h.g.g.h.g.q.9.2.+.O.O.+.+.+.>.,.>.>.>.>.>.4.:Xs.,.a.l.4.$.$.$.>.>.>.+.+.+.+.+.+.O.O.<.q.j.h.0.+.X.",
"<.&.*.*.9.j.1.X.O.O.+.+.+.+.+.+.+.+.o.+.+.O.X.3.h.h.h.*.O.$.%.+.+.+.+.+.+.+.+.+.+.+.+.O.X.5.g.#.X.+.",
"X.O.O.X.+.f.0.O.+.+.+.+.+.+.+.+.+.+.+.+.+.+.O.O.0.j.-.X.%.$.+.+.+.+.+.+.+.+.+.+.+.+.+.+.X.<.e.#.+.+.",
"+.+.+.%.X.<.f.+.+.+.+.+.+.+.+.+.+.+.+.+.+.+.+.X.9.e.+.O.$.+.+.+.+.+.+.+.+.+.+.+.+.+.+.+.O.<.q.+.O.+.",
"+.+.+.+.+.+.q.<.O.+.+.+.+.+.+.+.+.+.+.+.+.+.$.O.8.0.O.+.+.+.+.+.+.>.O.+.+.+.+.+.+.+.+.+.O.5.9.+.+.+.",
"+.+.+.+.+.X.5.9.O.+.+.+.$.+.+.+.+.+.+.+.+.+.+.O.2.5.O.$.+.+.+.+.+.+.+.+.+.+.+.+.+.+.+.+.O.8.9.O.+.+.",
"+.+.+.+.+.O.*.0.+.O.+.+.+.+.+.+.+.+.$.+.+.+.+.O.1.2.O.+.+.+.+.+.+.+.+.+.+.+.+.+.+.+.+.O.O.q.5.O.+.%.",
"+.+.+.+.+.+.O.0.<.O.+.+.+.+.+.+.+.+.+.+.+.+.%.O.<.<.O.+.+.+.+.+.+.+.+.+.+.+.+.+.+.+.+.O.&.g.2.O.+.+.",
"+.+.+.+.+.+.O.9.5.O.+.+.+.+.+.+.+.+.+.+.+.+.%.O.<.*.O.+.+.+.+.+.+.+.+.+.+.+.+.+.+.+.+.X.5.h.*.O.%.+.",
"+.+.+.+.+.+.X.2.0.O.+.+.+.+.+.+.+.+.+.+.+.+.+.O.-.<.O.+.+.+.+.+.+.+.+.+.+.+.+.+.+.+.+.+.e.h.#.O.+.+.",
"+.+.+.+.+.+.O.<.e.+.+.+.+.+.+.+.+.+.+.+.+.+.+.O.-.1.O.+.+.+.+.+.+.+.+.+.+.+.+.+.+.+.X.5.j.e.<.O.+.+.",
"+.+.+.+.+.+.O.&.g.*.X.+.+.+.+.+.+.+.+.+.+.+.+.O.<.1.O.+.+.+.+.+.+.+.+.+.+.+.+.+.+.X.<.h.g.g.h.*.X.+.",
"+.+.+.+.+.+.O.<.h.q.5.&.O.O.+.+.+.+.+.+.+.+.+.O.2.<.O.+.+.+.+.+.+.+.+.+.+.+.+.+.X.&.g.h.-.+.q.h.*.X."
};
