/* XPM */
static char *result[] = {
/* columns rows colors chars-per-pixel */
"50 50 203 2 ",
"   c #171A18",
".  c #2F0E1B",
"X  c #35141A",
"o  c #2B1925",
"O  c #341B28",
"+  c #192323",
"@  c #1B2F35",
"#  c #083E3E",
"$  c #173437",
"%  c #2A293A",
"&  c #312630",
"*  c #213237",
"=  c #243439",
"-  c #283F3E",
";  c #451825",
":  c #491A34",
">  c #48272C",
",  c #523A3E",
"<  c #2A3A43",
"1  c #3F3756",
"2  c #422B45",
"3  c #482B48",
"4  c #4B3747",
"5  c #533B42",
"6  c #4E3856",
"7  c #453F59",
"8  c #4A3B5B",
"9  c #523956",
"0  c #533D5F",
"q  c #124545",
"w  c #1A4545",
"e  c #114849",
"r  c #1F4A4C",
"t  c #19504F",
"y  c #1B5454",
"u  c #195857",
"i  c #294449",
"p  c #214B4F",
"a  c #364C4E",
"s  c #275356",
"d  c #365C5D",
"f  c #006058",
"g  c #11645E",
"h  c #3E4761",
"j  c #3A4B64",
"k  c #0B6A62",
"l  c #136761",
"z  c #0F7068",
"x  c #0E7974",
"c  c #157472",
"v  c #127B77",
"b  c #376060",
"n  c #3B6275",
"m  c #53424E",
"M  c #454059",
"N  c #554655",
"B  c #4B4562",
"V  c #514262",
"C  c #544B63",
"Z  c #564B65",
"A  c #544C6B",
"S  c #475F64",
"D  c #574F72",
"F  c #435F78",
"G  c #555375",
"H  c #5A5776",
"J  c #555679",
"K  c #565A7D",
"L  c #595B7D",
"P  c #5A6774",
"I  c #13837C",
"U  c #575B82",
"Y  c #595D83",
"T  c #4C6080",
"R  c #516484",
"E  c #566587",
"W  c #59648B",
"Q  c #5C688D",
"!  c #4E718E",
"~  c #576E92",
"^  c #5C7399",
"/  c #5A7FA4",
"(  c #0E8F88",
")  c #118780",
"_  c #0F948B",
"`  c #139892",
"'  c #09B6AC",
"]  c #0EB9B0",
"[  c #588F8A",
"{  c #4A928E",
"}  c #5F9690",
"|  c #40A39C",
" . c #5A82A6",
".. c #5A83A9",
"X. c #5989AD",
"o. c #5F8AB3",
"O. c #5990BB",
"+. c #628DB4",
"@. c #6395BE",
"#. c #4FAEA8",
"$. c #0AC5BA",
"%. c #11C0B8",
"&. c #5F9BC2",
"*. c #619DC5",
"=. c #5AA4CE",
"-. c #5BACD7",
";. c #62A1C5",
":. c #60A4CD",
">. c #63ABD4",
",. c #6CADD3",
"<. c #62AFD8",
"1. c #63B2DC",
"2. c #76B4D7",
"3. c #65B7E2",
"4. c #68B6E3",
"5. c #66BCE7",
"6. c #65BDEA",
"7. c #6ABEEA",
"8. c #08CFC4",
"9. c #04D2C6",
"0. c #0AD1C5",
"q. c #02D6CA",
"w. c #0BD6CA",
"e. c #02D9CD",
"r. c #0ADBCF",
"t. c #12DBCF",
"y. c #19D9CE",
"u. c #07DFD1",
"i. c #0CDCD0",
"p. c #14DCD0",
"a. c #1BDDD2",
"s. c #24DED3",
"d. c #2ADFD5",
"f. c #32DED5",
"g. c #39DFD6",
"h. c #03E3D5",
"j. c #0AE1D5",
"k. c #05E6D8",
"l. c #0AE5D9",
"z. c #02ECDE",
"x. c #09EADD",
"c. c #15E9DC",
"v. c #2DE0D5",
"b. c #33E1D6",
"n. c #39E1D7",
"m. c #36E2D8",
"M. c #3CE2D8",
"N. c #02EFE1",
"B. c #09EEE0",
"V. c #0AF2E4",
"C. c #05F7E9",
"Z. c #09F7EA",
"A. c #1DF6EA",
"S. c #08FFF6",
"D. c #1FFEF0",
"F. c #5ECEC9",
"G. c #41E1D7",
"H. c #43E3DA",
"J. c #4BE4DB",
"K. c #53E5DD",
"L. c #59E4DB",
"P. c #5BE6DE",
"I. c #62E5DE",
"U. c #6EE5DE",
"Y. c #62E8DF",
"T. c #6BC1EE",
"R. c #71C5EF",
"E. c #47EDE3",
"W. c #5DE7E0",
"Q. c #4CF0E7",
"!. c #46F6EB",
"~. c #53FDF5",
"^. c #63E7E0",
"/. c #64E8E0",
"(. c #6CE9E1",
"). c #73EAE3",
"_. c #7AEBE4",
"`. c #64F1E9",
"'. c #77F7EE",
"]. c #68FEF9",
"[. c #75FEF6",
"{. c #7CF9F1",
"}. c #A09497",
"|. c #83BDDE",
" X c #A0AEC3",
".X c #ABB1C0",
"XX c #B6B7C6",
"oX c #B7BECE",
"OX c #B6C0CE",
"+X c #B9C3D2",
"@X c #8CC1E0",
"#X c #98D0EB",
"$X c #B9DAEE",
"%X c #83EDE6",
"&X c #80F7EF",
"*X c #B5E4FC",
"=X c #C7D1D6",
"-X c #C1D8E6",
";X c #C8E1EF",
":X c #C6E3F2",
">X c #D5E9F4",
",X c #D9FEFF",
"<X c #E0F9FE",
/* pixels */
"e.e.r.r.r.i.r.q.e.M._.(.p.e.r.u.r.r.r.r.r.e.b.(.p.e.e.u.r.i.r.r.r.r.r.r.e.i.r.r.e.J.b.e.r.e.e.e.e.e.",
"K.s.e.e.r.e.q.v.^.%XH.e.e.r.r.r.r.r.r.r.i.e.s.).s.e.r.r.r.r.r.r.r.r.r.r.r.i.r.r.e.s.(.d.e.r.p.p.a.a.",
"d.K.K.t.w.j.H._.).s.q.r.r.r.r.r.r.r.r.r.r.e.t.(.b.e.r.r.r.r.r.r.i.r.r.r.r.r.r.r.e.p.(._./.P.J.J.J.H.",
"q.r.H./.M./.%XK.r.e.r.r.r.r.r.r.r.r.r.r.r.e.r./.M.e.r.r.r.r.r.r.i.e.r.r.r.r.r.r.e.a.).(.M.v.a.p.u.e.",
"r.r.q.b._.).M.e.e.i.r.r.r.i.r.r.r.r.r.r.r.e.e.P.J.e.r.r.r.r.i.e.i.r.r.r.r.i.r.r.e.M._.a.q.e.e.e.e.e.",
"r.r.r.q.M.Y.q.r.r.r.r.r.r.e.r.r.r.r.r.r.r.i.e.J.^.e.e.r.r.r.r.i.r.i.r.r.r.r.r.e.i.(.v.q.r.r.r.r.i.i.",
"r.r.r.e.q.L.b.e.i.r.r.r.r.r.r.r.r.e.i.r.r.r.e.M.(.i.e.i.i.r.r.r.r.e.r.r.r.r.r.e.H.H.q.u.r.r.r.r.i.r.",
"r.r.r.r.q.c.P.r.e.r.r.r.i.r.r.r.r.i.r.r.u.r.e.d.).a.e.r.r.r.r.r.r.r.r.r.r.i.e.s.K.e.e.i.r.r.r.r.i.r.",
"r.r.r.r.r.e.J.v.e.i.r.r.r.r.r.u.r.r.r.r.r.i.e.t.).s.q.r.r.r.u.r.r.r.r.r.r.e.r.P.a.e.r.r.i.r.e.r.r.r.",
"r.r.r.r.i.e.a.H.e.r.r.r.r.r.r.r.r.r.r.r.r.e.e.d.).K.v.e.q.e.r.r.r.r.r.r.i.q.G.H.e.r.r.r.r.r.u.r.r.r.",
"r.r.r.r.r.e.r.J.a.e.r.r.r.r.r.r.r.r.r.r.e.e.H.%X^.(._.^.M.p.e.e.r.r.r.i.e.a./.r.e.r.r.r.r.r.r.r.e.r.",
"r.r.r.r.r.r.e.b.m.e.i.r.r.r.r.r.r.r.r.e.r.^.%XJ.p.i.v.H.Y.Y.J.v.r.e.e.e.e.J.J.e.r.i.r.r.r.r.r.r.i.r.",
"r.r.r.r.r.u.e.a.K.r.e.i.r.r.r.r.r.e.e.s._.).d.e.e.e.e.e.e.a.n.P./.H.t.q.e./.d.e.r.r.r.r.r.r.r.r.r.i.",
"r.r.r.r.r.r.r.e./.b.q.e.e.e.e.e.e.p.J.&XQ.w.q.r.r.r.i.r.r.e.q.r.f.Y._.H.f./.a.e.r.r.r.r.r.r.r.r.r.r.",
"r.r.r.r.r.r.e.r.Y.(.f.p.p.r.i.s.G.U.'.a w h.i.r.r.r.r.r.r.r.r.r.e.e.H._._.^.i.e.r.r.r.r.r.r.r.r.r.r.",
"r.r.r.u.r.r.e.n._.(.^.Y.^./.(.)._.I.c.@ 9 p j.i.r.r.r.r.r.r.r.r.u.e.e.b.).(.n.e.e.r.r.r.r.r.u.r.r.r.",
"r.r.i.w.w.e.d.%X^.p.e.p.s.m.J.(.P.w.h.* L 0 p u.u.w.e.i.i.r.r.e.r.r.r.e.M._._.G.e.e.r.r.r.r.r.r.r.r.",
"r.i.r.k.N.s.).J.r.e.u.e.e.e.e.m./.w.k.= A E 0 p j.u.i.i.r.r.i.i.r.r.e.e.K.U.Y.%XY.t.q.r.r.r.r.r.r.r.",
"r.w.x.v w `.b.e.e.i.i.i.i.i.e.w./.g.h.* D J E 0 p j.u.i.r.r.r.r.r.r.e.G._.a.r.M._._.v.e.e.r.r.r.r.r.",
"r.q.N.w L s u.u.r.i.r.r.w.w.r.h.E.`.h.* D L G E 0 r u.0.i.l.w.r.r.e.a._.v.e.r.e.p.J._.K.r.e.r.r.r.r.",
"e.e.G.Q.i 0 p i.w.i.w.0.i.B.B.' ] F.a > 5 , , A W B o . I $.N.l.9.e.(.G.e.r.r.r.e.e.p.K.(.d.q.e.i.r.",
"f.W.Y.j.@ >.6 z Z.8.B.Z.$.( _ X X O 4 N N m A Y V ^ ^ / B O I ] C.J.I.q.9.w.w.w.r.u.e.e.d./.K.t.e.r.",
")._.y.j.= <.X.< w.Z.c x - ; 2 Z H W U U U K U C P 3.1.-.6.O.1 * f F.D.N.V.V.V.V.r.r.r.r.e.r.J.(.d.q.",
").K.q.k.= *.3.M + y ; 3 N L U J J D J J J J U 5 ;.-.2.$X,.#X*X X}.S # q q q w y r.r.r.r.r.e.q.b._.J.",
"_.J.e.k.= *.5. .V V W Q o.=.&.&.&.;.~ G K K U D *.-.|.<X:X;X>X,X,X-XoX+X+X+XXXO 8.u.r.r.r.r.r.q.v._.",
").P.e.h.= *.3. .0 A ....X.>.<.<.7.6.5.1.:.:.-.Y *.<.=.@X;XR.*X.X.XoX+X+XOX=XP ' j.r.u.r.r.r.r.i.e.n.",
"Y./.r.h.= &.5.7 + u w u   ! 6.>.R E R @.T.7.7.*.+.1.1.-.5.! F i q q q q e $ ' x.r.r.r.r.r.r.r.e.r.P.",
"J.).y.h.= >.X.< 0.Z.B.S.z E 5.n l k k % h j B F J / / +.T d [ ~.N.V.B.V.V.V.j.r.r.r.r.r.r.i.r.e.P.P.",
"b._.s.h.= >.6 z Z.8.0.B.g ~ 4.+ S.z.A.#.[ } | @ V G Y 3 d [.[.0.9.w.w.w.w.w.r.r.r.r.r.r.r.r.q.H./.e.",
"s.).n.h.i 0 p r.w.i.w.B.c X < %.q.t.I.{.~.E.].d 8 Q 6 b ]./.L.e.e.r.i.i.r.r.r.r.r.r.r.r.r.e.v.(.p.e.",
"p.U.!.e J s j.u.e.i.r.r.i.0.0.j.e.P.%XI.w.9.N.t A Q & { [.L.).P.a.q.e.r.r.r.r.r.r.r.r.r.e.t.).d.q.i.",
"r.U.Q.x q k.i.r.r.r.r.i.i.i.u.q.M.%XP.r.e.w.B.w : 3 v A.L.).f.J.(.H.p.e.e.i.i.r.r.r.r.e.e.P.K.q.r.r.",
"i.(.K.c.V.q.e.u.r.r.r.i.r.r.e.d._.J.e.e.i.e.l.` l ) N.9.W.(.u.e.a.J.K.n.p.e.e.r.r.r.r.q.n._.i.e.u.r.",
"J.).)._.U.J.a.e.e.e.r.r.e.q.s.).v.q.r.i.r.r.e.x.V.x.w.e.J.I.r.e.q.e.a.M.K.H.p.e.e.r.q.a._.n.e.i.r.r.",
"%XJ.d.G.P.(._.I.n.p.e.e.e.b.(.s.q.r.r.r.r.r.r.w.w.w.u.e.J.P.e.e.i.r.e.e.p.M.^.K.d.e.e./.(.e.e.i.r.r.",
"M.e.q.q.e.i.v.J./.(.Y.P.P._.v.q.r.i.r.r.r.r.r.r.e.i.i.e.J.J.e.r.r.r.r.u.e.e.i.J._.P.J._.n.e.r.r.r.r.",
"e.e.r.r.r.e.e.e.e.a.n.K._.P.e.r.r.e.i.r.r.r.r.r.i.r.r.e.H.H.e.r.r.r.r.r.r.r.e.e.a.K._./.p.e.i.r.r.r.",
"r.r.r.r.r.i.r.r.e.e.e.q.J.P.e.r.i.r.r.r.r.r.r.r.r.r.r.e.M.m.e.r.r.r.r.r.r.r.r.r.e.r.).P.e.r.r.r.r.r.",
"r.r.r.r.r.r.r.r.i.i.i.e.a./.p.e.r.r.r.r.r.r.u.r.r.e.i.e.M.b.e.r.r.r.r.r.r.r.r.r.e.p.).M.e.r.r.r.r.r.",
"u.r.r.r.r.r.r.r.i.r.r.r.e.K.M.e.r.r.r.r.r.r.u.e.i.r.r.e.n.d.e.u.r.r.i.r.r.r.r.i.e.s.(.s.e.i.e.i.r.r.",
"r.r.r.r.r.r.r.r.r.r.r.i.e.s.Y.r.r.r.r.r.r.r.r.r.i.e.u.e.m.s.e.r.r.u.r.r.r.r.r.r.e.v.(.p.e.r.r.r.r.r.",
"r.r.r.r.r.r.r.r.r.r.r.r.e.r.(.n.q.i.r.r.r.r.r.r.i.i.i.e.n.s.e.r.r.r.r.r.r.r.r.r.e.v.(.i.e.u.r.r.r.r.",
"r.u.r.r.r.r.r.r.r.r.r.r.r.e.^.(.t.e.r.u.r.r.r.r.r.r.r.e.H.s.e.i.r.r.r.r.r.r.u.r.q.J./.e.r.r.r.r.i.r.",
"i.e.r.r.r.r.r.r.r.r.r.i.e.p.(._.I.r.e.r.r.r.r.r.r.r.r.r.J.a.e.r.r.r.r.r.r.r.r.e.e././.r.q.e.r.r.r.r.",
"i.e.i.r.i.r.r.r.r.r.r.r.e.P.).J._.^.r.q.r.r.r.r.r.r.e.r.K.s.e.r.r.r.r.r.r.r.e.e.H.).(.P.H.a.e.e.r.r.",
"r.r.r.i.r.r.r.r.r.r.r.e.K.(.a.e.v.).(.p.q.r.i.r.r.r.e.r.P.s.e.i.r.r.i.r.e.q.p.K.%X(.K.K.(.).K.p.q.e.",
"r.r.r.r.r.r.r.r.r.e.r.J.K.e.q.r.q.r.K.).b.e.e.r.i.i.e.p.(.d.q.e.i.e.e.e.p.H.(.(.M.c.e.e.e.v.P.).M.r.",
"e.r.r.r.r.r.r.r.e.p.H.b.e.e.i.r.i.e.q.b._.K.p.e.e.e.q.p.).M.r.r.i.p.d.J.P.K.v.e.q.q.r.r.e.q.q.M._.Y.",
"i.i.r.r.r.i.r.e.a.H.a.e.r.i.r.r.r.r.r.q.p./._.J.d.a.a.J.).).(./.^.(./.M.a.e.e.e.r.i.r.e.e.a.J./.(.).",
"r.r.r.r.r.e.e.d.g.r.e.i.i.e.r.r.r.r.r.r.e.r.K._.)./._.(.J.J.P./.).M.r.e.e.r.i.r.r.e.e.a.K._.).K.d.a."
};
