/* XPM */
static char *result[] = {
/* columns rows colors chars-per-pixel */
"50 50 29 1 ",
"  c #25131A",
". c #802954",
"X c #D01946",
"o c #E84444",
"O c #00D7CA",
"+ c #02D9CD",
"@ c #0ADBCF",
"# c #10DBCF",
"$ c #0EDCD0",
"% c #13DCD1",
"& c #1BDDD2",
"* c #23DFD4",
"= c #29DFD5",
"- c #2CE0D6",
"; c #33E1D7",
": c #37E1D8",
"> c #3CE2D8",
", c #44E3DA",
"< c #4CE5DB",
"1 c #54E6DD",
"2 c #5CE7DF",
"3 c #61E7DF",
"4 c #61E8DF",
"5 c #65E8E0",
"6 c #6CE9E1",
"7 c #73EAE3",
"8 c #7CEBE5",
"9 c #83EDE6",
"0 c #89EDE7",
/* pixels */
"8&+@@@@@@@@++;9*+@@@@@@@@@@@@@+<1+@@@@@@@@@@@+*3%@",
"9>+@@@@@+++%=71+@@@@@@@@@@@@@@+>1+@@@@@@@@@@@+;7%+",
"85@+++++&:1798&O@@@@@@@@@@@@@@+-5%+@@@@@@@@@@+,9;O",
"77,@*;,1252<<72++@@@@@@@@@@@@$+&7&+@@@@@@@@@+@387*",
"73773<>=%@+++&61+@@@@@@@@@@@@@+%7;+@@@@@@@@@O,8,39",
"453:@++++@@@@O@2,+@@@@@@@@@@@@@%6,+@@@@@@@@+;8=+@>",
"67:O+@@@@@@@@@+@1;O$@@@@@@@@@@+%61+@@@@@@@O=7*O@++",
",9,+@@@@@@@@@@@+@2;O@@@@@@@@@@+%71+@@@@@++>7*O$@@@",
"@35#+@@@@@@@@@@@+#3=O@@@@@$@@+O-85@O@@@++<8&O@@@@@",
"+;8*+@@@@@@@@@@@@+*8=O@@@++++@>5552=+++%39*+@@@@@@",
"@@7,+@@@@@@@@@@@@@+<8;@++%&;,58767881$&59;O@@@@@@@",
"@+<5@+@@@@@@@@@@@@+%571111<<,:=&*=><67581@@@@@@@@@",
"@+-7*+@@@@@@@@@@@@@+185,-%@+++++++++@>67*O@@@@@@@@",
"@+#6,+@@@@@@@@@@@@@@11++++@@@@@@@@@@++16#@@@@@@@@@",
"@@+14@@@@@@@@@@@@@+@1>+@@@@@@@@@@@@@@+,6@@@@@@@@@@",
"@@+:8&+@@@@@@@@@@@@+1*+@@@@@@@@@@@@@@+*5%+@@@@@@@@",
"@@+-8;+@@@@@@@@@@@@     @@@@@@@@@@@@@@@5;+@@@@@@@@",
"@@+&7<+@@@@@@@@@@@ ooooo  @@@@@@@@@@@@+1<+@@@@@@@@",
"@@+$55@+@@@@@@@@@ oooooooo @@@@      @+>5@@@@@@@@@",
"@@@@25%+@@@@@@@@ Xooooooooo @@ ...... +*8&+@@@@@@@",
"@@@+17#+@@@@@@@@ XoooooooooX  ........ &7;+@@@@@@@",
"@@@+<6%@@@@@@@@@ XXooooooooXX ......... 8>O+@@@@@@",
"@@@+,7#+@@@@@@@@ XXXXoooooXXX ......... 73;#++@@@@",
"@@@+<6#+@@@@     XXXXXXXoooXXoo...  ... 8796,#++@@",
"@@@+<4@@@@@ XXXXXoXXXXXooooXXooXXX  ... =&,598<*+O",
"@@@+1<++++ XXXXXXXXXoooooooXXoXXXXX.... O++$=1881*",
"@++@3,@#* XXXXXXXXXooooooXXXXXXXXXXX.. +@@@+++&<89",
"+&;163338 XXXXXXXXooooooooXXXXXXXXXX. @@@@@@@@++&,",
"248876632 XXXX  XXoooooooo.XX  XXXXX. @@@@@@@@@@++",
";-*&--48* XXXX    ooooo ....  XXXXXX.. @@@@@@@@@@@",
"+++++O;9: XXXXXX  ooooooo... XXXXXX ... @@@@@@@@@@",
"@@@@@@+21+ XXXXXX  ooooooo.. XXXXX @    @@@@@@@@@@",
"@@@@@@+&4&+  XXXXX     ooo...XXX  @@@@@@@@@@@@@@@@",
"@@@@@@@+4:+@@  XXX @@@ ooo ..XXX @@@@@@@@@@@@@@@@@",
"@@@@@@@+>1+@@ X XX @@ ooo   . XXX @@@@@@@@@@@@@@@@",
"@@@@@@@+&4@@@ XXXX @ ooo @@@   XXX @@@@@@@@@@@@@@@",
"@@@@@@@@+2-+@@ XXX @    @@@+@>%    @@@@@@@@@@@@@@@",
"@@@@@@@@+<,+@@@   @@@@@@@@@@@>@+@@@@@@@@@@@@@@@@@@",
"@@@@@@@@+;4@@@@@@@@@@@@@@@@+%>$@@@@@@@@@@@@@@@@@@@",
"@@@@@@@@+-4#+@@@@@@@@@@@@@@@@>$@@@@@@@@@@@@@@@@@@+",
"@@@@@@@@+%7-+@@@@@@@@@@@@@@@%>@+@@@@@@@@@@@@@@@@@+",
"@@@@@@@@+@5,+++@@@@@@@@@@@@@%,$@@@@@@@@@@@@@@@@@+;",
"@@@@@@@@+-471-@O+@@@@@@@@@@+&<$@@@@@@@@@@@@@@@@+=8",
"@@@@@@++>863893;@+@@@@@@@@$+&1@@@@@@@@@@@@@@@++=87",
"@@@@@+@17>#@-<795=@++@@@@@@+&5%+@@@@@@@@@@@@++>95$",
"@@@@O*1,@O@+++&>693=$+O+++++,7<%+++@@@@@@@@O@201++",
"@@++;<&O+@@@@@++%>595>*&#&;586871;#++@@@@++=79;++@",
"@+%1,@+@@@@@@@@@++@;2985277<=&&=,11<-@+++#196*++@@",
"+;7>++@@@@@@@@@@@@++@&,575&O++++++#;12>#;691%+@@@@",
"<9:O@@@@@@@@@@@@@@@@@O@57%O$@@@@@@+++*1777>@+@@@@@"
};
