/* XPM */
static char *result[] = {
/* columns rows colors chars-per-pixel */
"50 50 15 1 ",
"  c black",
". c #1A0F0D",
"X c #341E1A",
"o c #0A4434",
"O c #23632B",
"+ c #3D7238",
"@ c #303C43",
"# c #245341",
"$ c #2C5B6D",
"% c #20726A",
"& c #2DA75F",
"* c #158968",
"= c #399062",
"- c #46C657",
"; c None",
/* pixels */
"%*%$$%*%$$$$$%******%=-&*##*****&--&%%**********&-",
"$$$$$%**%$$%*%%***&-&&-&&-&***#+--&%$%*********&--",
"$$%*%%***%$%******&----&&--+#*#+-&#@$$%*%$%***&---",
"%$%*******%%*****&----------+XXXXX#%$$%*%$%*%%&-&&",
"****%%****%$$%**&-----------&*#XX#***%$$$$$$$%***&",
"**********%$%**%$%&--------&***#X#***%$$$$$$%****&",
"**************&-==--------&****#XXX#%$$$$$$$%*****",
"**&-&******&-&&-&&---------&**#X#*******%$$$$$%***",
"**&--&*&-&&--&**%%&--------&&-&*********%%*%$%****",
"-&&---&&----&*&-&&--------&*&-&*****%%%$$%*%=-&&-&",
"----------&***&----------&**********&-&&-&&------&",
"&----------&*&-------------&****&-&*&-&&-------&**",
"*&-------------------------&***&--&&-------------&",
"&-------------------------&****&-&&--------------&",
"&----------------------&&&********&-----------&&&*",
"&-&&-------------------&********&-&*&-&&------&***",
"***&----------------&&-&***##***&-&&-------&&-&**%",
"***&-&&---------&&-&******oo*******&-&&-&&-&******",
"--&***&---------&*****o o*oo*************&-=%*****",
"---&&-&&-&&-&&-&*****o ;     o*****##*****%$%****%",
"------&***&-&**%%o.#*o ;;;; o****o  .XX#****%%****",
"----&***********o  .X. ;;;; o*o   ; .X#***********",
"-----&*****%%*%%*o .X. ;;;;;   ;;;; .X#****oo***%$",
"-----&*****%$$$%*oo*#X. ;;;;;;;;;;; .XXXX#*oo***%$",
"--&*****%%*%$$@.  o*##*o  ;;;;;;;;  .XXXXXX.  o***",
"---&****%$$$$$$$$%****&-&o ;;;;;; o*oo*#XXXX. o***",
"---&****%$$$$%*****&-&&-&o ;;;;;; o****##*##****%$",
"-&*oo*%$$$$%***********o  ;;;;;    o******##*****%",
"-&**oo**%$$%****&-&&----O ;    o*oo**************%",
"****oo****%$%***&-&&----O  o*o o****************%$",
"**o   o***%$%*&------&o  ; o***********%%***%%****",
"*o  o**%$$$$%*&--------O ; o*****&-&******%$$%****",
"*******%%*%%***&-------O    o*&-&&-&***%%*%$$%****",
"******%$%*&-&&--------Oo*oo**&---&*%%**%$$$%***&-&",
" o****%%**&-&&----------&oo**&-----&%%*%$$$%***&-&",
" o*oo*%%******&---------&*****&-&&-&%$$$$$$$%&----",
"    o*%$%&-&&----------&*****&--&%$$$$$$$%***&----",
"o  o*%%*&--&&------------&**&---&**%$$$$$%****&---",
"*o o****&-&*&------------Oo*&--&***%$$$$$$%*&-----",
"****oo****&------------&*******%$%%$$$$$$%**&-----",
"*&--&*****&------------&*o  o**%%****%$$$%***&---&",
"----Oo*******&------&*o   o****%%****%$$$$$%*&---&",
"----&*o o***&--------&*&-Oo*****%$$%%$%*%%*****&-&",
"&&-&ooo   o*&---&&----&&-O o****%$%**%%*%%********",
"&oo*o  ;;;  o*&-&&-&&--O  o**oo%$$%******%%*******",
"O      ;     o***&-&oO-O  o*oo**%%****************",
"o**oo*o o*o      o**o   ;;   o**%%***%%******%$%**",
"-&********o o*o   oo ;;;;     o**%$%%$%***%%%$$%**",
"-&&-&***&-&***oo*o  ;;;; o*oo*********%%%$$$$$$%**",
"----&&-&&-&&-&***o   ;;; o*******&--&***%$$$$$%***"
};
