/* XPM */
static char *result[] = {
/* columns rows colors chars-per-pixel */
"50 50 197 2 ",
"   c #00D9CC",
".  c #00D9CD",
"X  c #01D9CD",
"o  c #02D9CD",
"O  c #00DACD",
"+  c #01DACD",
"@  c #02DACD",
"#  c #03DACD",
"$  c #00DACE",
"%  c #01DACE",
"&  c #02DACE",
"*  c #03DACE",
"=  c #04DACE",
"-  c #05DACE",
";  c #06DACE",
":  c #07DACE",
">  c #06DBCE",
",  c #07DBCE",
"<  c #07DACF",
"1  c #07DBCF",
"2  c #08DACE",
"3  c #08DBCE",
"4  c #09DBCE",
"5  c #08DACF",
"6  c #08DBCF",
"7  c #09DBCF",
"8  c #0ADBCF",
"9  c #0BDBCF",
"0  c #0CDBCF",
"q  c #0DDBCF",
"w  c #0BDBD0",
"e  c #0CDBD0",
"r  c #0DDBD0",
"t  c #0EDBD0",
"y  c #0FDBD0",
"u  c #0DDCD0",
"i  c #0EDCD0",
"p  c #0FDCD0",
"a  c #10DCD0",
"s  c #11DCD0",
"d  c #11DCD1",
"f  c #12DCD0",
"g  c #13DCD0",
"h  c #12DCD1",
"j  c #13DCD1",
"k  c #13DDD1",
"l  c #14DCD1",
"z  c #15DCD1",
"x  c #14DDD1",
"c  c #15DDD1",
"v  c #16DDD1",
"b  c #17DDD1",
"n  c #16DDD2",
"m  c #17DDD2",
"M  c #18DDD1",
"N  c #18DDD2",
"B  c #19DDD2",
"V  c #1ADDD2",
"C  c #1BDDD2",
"Z  c #1BDED2",
"A  c #1CDDD2",
"S  c #1CDED2",
"D  c #1DDED2",
"F  c #1CDED3",
"G  c #1DDED3",
"H  c #1EDED3",
"J  c #1FDED3",
"K  c #20DED3",
"L  c #21DED3",
"P  c #22DED3",
"I  c #23DED3",
"U  c #22DFD3",
"Y  c #21DED4",
"T  c #22DED4",
"R  c #23DED4",
"E  c #22DFD4",
"W  c #23DFD4",
"Q  c #24DED4",
"!  c #24DFD4",
"~  c #25DFD4",
"^  c #26DFD4",
"/  c #27DFD4",
"(  c #27DFD5",
")  c #28DFD4",
"_  c #28DFD5",
"`  c #29DFD5",
"'  c #2ADFD5",
"]  c #2BDFD5",
"[  c #29E0D5",
"{  c #2AE0D5",
"}  c #2BE0D5",
"|  c #2CE0D5",
" . c #2EE0D5",
".. c #2CE0D6",
"X. c #2DE0D6",
"o. c #2EE0D6",
"O. c #2FE0D6",
"+. c #30E0D6",
"@. c #31E0D6",
"#. c #30E1D6",
"$. c #31E1D6",
"%. c #31E1D7",
"&. c #32E1D6",
"*. c #33E1D6",
"=. c #32E1D7",
"-. c #33E1D7",
";. c #34E1D7",
":. c #35E1D7",
">. c #36E1D7",
",. c #37E1D7",
"<. c #37E2D7",
"1. c #38E1D7",
"2. c #38E2D7",
"3. c #37E1D8",
"4. c #38E1D8",
"5. c #38E2D8",
"6. c #39E2D8",
"7. c #3AE2D8",
"8. c #3BE2D8",
"9. c #3CE2D8",
"0. c #3CE2D9",
"q. c #3DE2D9",
"w. c #3DE3D9",
"e. c #3EE2D9",
"r. c #3FE2D9",
"t. c #3EE3D9",
"y. c #3FE3D9",
"u. c #40E3D9",
"i. c #41E3D9",
"p. c #42E3D9",
"a. c #40E3DA",
"s. c #41E3DA",
"d. c #42E3DA",
"f. c #43E3DA",
"g. c #44E3DA",
"h. c #45E3DA",
"j. c #46E3DA",
"k. c #45E4DA",
"l. c #46E4DA",
"z. c #47E4DA",
"x. c #46E4DB",
"c. c #47E4DB",
"v. c #48E4DB",
"b. c #49E4DB",
"n. c #4AE4DB",
"m. c #4BE4DB",
"M. c #4CE4DB",
"N. c #4CE5DB",
"B. c #4DE5DB",
"V. c #4EE4DB",
"C. c #4CE4DC",
"Z. c #4CE5DC",
"A. c #4DE5DC",
"S. c #4EE4DC",
"D. c #4EE5DC",
"F. c #4FE5DC",
"G. c #50E5DC",
"H. c #51E5DC",
"J. c #51E5DD",
"K. c #52E5DC",
"L. c #52E5DD",
"P. c #53E5DD",
"I. c #53E6DD",
"U. c #54E5DD",
"Y. c #54E6DD",
"T. c #55E6DD",
"R. c #56E6DD",
"E. c #57E6DD",
"W. c #57E6DE",
"Q. c #58E6DE",
"!. c #59E6DE",
"~. c #59E7DE",
"^. c #5AE6DE",
"/. c #5BE6DE",
"(. c #5AE7DE",
"). c #5BE7DE",
"_. c #5BE7DF",
"`. c #5CE7DE",
"'. c #5CE7DF",
"]. c #5DE7DF",
"[. c #5EE7DF",
"{. c #5FE7DF",
"}. c #60E7DF",
"|. c #61E7DF",
" X c #61E8DF",
".X c #62E8DF",
"XX c #63E8E0",
"oX c #64E8E0",
"OX c #65E8E0",
"+X c #66E8E0",
"@X c #67E8E1",
"#X c #68E8E1",
"$X c #69E9E1",
"%X c #6AE9E1",
"&X c #6DE9E2",
"*X c #70EAE2",
"=X c #73EAE3",
/* pixels */
"9 6 @ - v o.l.G.!.D.).d.v 7 8 8 8 8 8 9 ; D G.s [ g.W.).Y.!.R.S.9.{ A 9 *.XXL 6 8 8 8 8 8 8 9 * } Z.",
"- j O.h.0.W j * @.{.N ; 6 8 8 8 8 8 8 9 = ! c.* : : a :._.^ l 7 - - , , s F.8 7 8 8 8 8 8 8 9 * i.| ",
"J.[.m.K ; = 6 6 h n., 8 8 8 8 8 8 8 8 9 * O.e.* 0 9 1 : j.8 > 8 9 9 9 9 - b.H ; 9 8 8 8 8 8 7 r b.t ",
"X.v * - 9 9 8 8 7 M.v 1 8 8 8 8 8 8 8 9 & q.&.* 9 8 0 = 6.T - 9 8 8 8 9 * u.o.* 9 8 8 8 8 9 = ~ 8.& ",
"* , 9 9 8 8 8 9 - n.L - 9 8 8 8 8 8 8 0 - b.~ = 9 8 9 - J %.= 9 8 8 8 9 & :.u.& 9 8 8 8 8 0 = p.T = ",
"9 9 8 8 8 8 8 9 & y.&.* 9 8 8 8 9 9 8 ; # A.Z > 9 8 8 8 9 -.9 8 8 8 8 9 = [ H.- 0 8 8 8 9 ; N H.8 9 ",
"8 8 8 8 8 8 9 7 $ b.F.& 0 9 9 9 , * 9 B ^ L.i 7 8 8 8 9 - _ C ; 9 8 8 0 - a ].a * 6 9 0 6 = Y.l.O ; ",
"8 8 8 8 8 0 ; 7 b.|.A.H O = @ - M ;.u.8.y.XX@.* 9 8 8 8 , v O.- 9 8 0 ; u p.[.c.^ j ; @ 0 9.E.c.e.L ",
"8 8 8 9 8 = N M.u.a : q.o.} 5.c.g./ q - + N U.h 6 8 8 8 9 1 u.v 1 q = v m.=.i s H @.r.:.=.v : 3 v +.",
"9 8 0 , 1 ( 8.N @ 7 ; Z %XN.7.H ; = 7 9 0 * H -.& 0 9 9 9 . 2.B.& + H a.c + 7 6 ; * ^ T.0 ; 9 9 , = ",
"; 9 * l +.P - ; 0 8 8 8 H.g   : 9 9 8 8 8 0 * O.W . * = 9 A R.&Xd.6.<.8 ; 0 8 8 9 7 p #.- 0 8 8 8 9 ",
"L = X.,.a = 9 9 8 8 9 = z.! ; 0 8 8 8 8 8 8 6 s (.m.t.8.:.+.%.(.$Xo.- 7 9 8 8 8 8 8 7 :.i 7 8 8 8 8 ",
"n.I.>.1 6 9 8 8 8 8 9 & q.O.* 9 8 8 8 8 8 8 8 8 T.6.} F 9 - . S I.; 8 8 8 8 8 8 8 9 = X.^ = 9 8 8 8 ",
"8 D.v ; 9 8 8 8 8 8 9 * -.q.* 9 8 8 8 8 8 9 ; A Z.% * ; 8 9 q = >.V , 8 8 8 8 8 8 8 6 h g.6 8 8 8 8 ",
"- n >.; 9 8 8 8 8 8 9 - ! h.@ 0 9 8 8 8 8 9 = e.L ; 0 9 8 8 9 > V L ; 9 8 8 8 8 8 8 9 & q.$.& 0 8 8 ",
"0 > ! j 6 8 8 8 8 8 0 X G ^.j & - 9 9 8 9 - P X.= 9 8 8 8 8 8 7 r ~ 6 9 8 8 8 8 8 8 8 6 d E.l , 0 8 ",
"8 6 s H , 9 8 8 9 8 + ~ '.G.).h.H ; = 8 7 f o.> 8 8 8 8 8 8 8 9 , { i 7 9 8 8 8 8 8 8 9 * %.T.; - 9 ",
"8 8 7 ..8 , 8 7 = , 5.T.E = l &.b.g./ 8 + :.h 6 8 8 8 8 8 8 8 9 & -.-.@ : 9 8 8 8 8 8 8 9 - m.K.C - ",
"8 0 + g.7.e q q ~ A.5.7 = 9 6 * - B 3.g.i.4.@ q 8 8 8 8 8 8 8 7 9 ^.+Xr.m : 7 9 8 8 8 8 9 = ( +XR.L.",
"0 = c R.r.d.b.].[.G + 8 9 8 8 9 9 : # s F.I.p = , 9 9 8 8 8 9 = 6.5.a N ! P a ; 7 9 8 8 0 & M.' 6 +.",
"@ c D.G O 9 0 +.q.. q 8 8 8 8 8 8 8 q + u.'.n.+.c ; , 9 8 9 - P ^ + 6 : - a J J y = , 9 . | g.- 7 * ",
") R.C = 0 8 , 0 n.t 7 8 8 8 8 8 8 9 = U e.= 0 Z _ } v * 0 - V ^ = 0 9 8 9 7 : l ` ] b 1 O.D.9 7 9 9 ",
"/.B = 0 8 8 9 * g._ = 9 8 8 8 8 8 8 8 ;.9 7 8 ; - s >.-.@ v 3.: 8 8 8 8 8 8 9 3 3 H k.`.U.p : 9 8 8 ",
"s ; 9 8 8 8 9 * } n.= 9 8 8 8 8 9 - R C ; 9 8 9 9 6 = u.v.C.B > 9 8 8 8 8 8 8 8 9 ; * m.^ & 0 8 8 8 ",
"6 9 8 8 8 8 8 6 a ).M , 9 8 8 8 6 s } ; 9 8 8 8 8 9 8 - [.b.* 9 8 8 8 8 8 8 8 8 8 0 * | :.* 9 8 8 8 ",
"8 8 8 8 8 8 8 9 * n.t.O 9 9 9 0 = $.v 1 9 8 8 8 8 8 9 * -.>.@ 0 8 8 8 8 8 8 8 8 8 8 > B g.; 9 8 8 8 ",
"8 8 8 8 8 8 8 9 = /  Xl 6 = * . ^ 7.= 9 8 8 8 8 8 8 0 O 3.W.- - 9 9 8 8 8 8 8 8 8 8 8 8 M.c 1 9 9 9 ",
"9 8 8 8 8 8 8 9 * h.%XY.D.b.0.o.{.M + 0 9 8 8 8 8 9 = A P.Q.M.S = - 9 9 8 8 8 8 8 8 9 * l.:.% 4 - = ",
"; 7 9 9 8 8 0 * ` G.N i N _ :.[. Xm.S & : 9 9 0 6 ; J +.a ; H r.u.H * : 0 8 8 8 9 9 0 . -.).e z Y :.",
"S 9 @ ; 8 0 = M >.1 ; 7 , -   l.| H n.q.m * - = h | J ; 6 9 - = H n.n.M * 9 9 9 , * : v F.$XD.@.^ J ",
"Q.Q.q.V 7 + B 1.< 7 9 8 9 0 - w.K . : ~ x.d.I =.2.j - 9 8 8 9 9 - - =. X>.; - = M ;.c.I.R.XXC # - - ",
"9 G ,.k.f.c.'.b > 9 8 8 8 9 - %.B 2 9 = : ^ .Xv.+ 6 9 8 8 8 8 8 9 9 @ N  Xf.V b.m.O.N 9 * m.` - 0 9 ",
"7 ; @ ; a o.I.6 9 8 8 8 8 9 ; / l 6 8 9 9 @ j U.V ; 9 8 8 8 8 8 8 8 0 = f }.XX+., * , 9 = R d.* 9 8 ",
"8 9 9 9 6 & z.B , 9 8 8 8 9 > E j 6 8 8 8 0 = S m.8 8 8 8 8 8 8 8 8 8 0 & d.} . 9 9 8 8 8 0 b.a 6 8 ",
"8 8 8 8 0 * #.9.% 0 8 8 8 9 , J j 6 8 8 8 8 0 * / ,.* 0 8 8 8 8 8 8 8 9 - 4.N 3 9 8 8 8 9 * s._ = 9 ",
"8 8 8 8 8 8 7 L.v - 0 8 8 9 ; Y x , 8 8 8 8 8 0 * :.T = 9 8 8 8 8 8 8 9 , :.h 6 8 8 8 8 9 * $.u.& 0 ",
"8 8 8 8 9 & ~ oXQ.s - 0 8 9 - _ V ; 9 8 8 8 8 8 7 0 z.s 1 9 8 8 8 8 8 8 8 :.q 7 8 8 8 8 9 - W F.; 9 ",
"8 8 9 7 - =.V.C ` h.V @ 8 q - -.W - 9 8 8 8 8 8 q & J m.- 7 9 8 8 8 8 7 p 6.7 8 8 8 8 8 9 ; V H.8 8 ",
"8 0 - 0 6.=.; ; * 0 ,.$.8 - . f.#.% 0 8 8 8 9 6 * r r.*Xl.: , 0 8 8 9 6 N 9.; 9 8 8 8 8 8 1 v F.9 9 ",
"9 * V 9.C & 8 9 0 7 = <.Q.6.8.}.R.w : 0 9 , - a o.D.n.Q =.r.a & 7 8 7 . | ,.. 9 0 9 9 9 9 > k f.+ * ",
"- O.9.r - 0 8 8 8 8 9 . u.=Xi.z p.`.h @ = z | =._ a * - @ z u.o.r 7 j o.Q.U.T : @ = * * ; : } b.R 8.",
"C.0.- 6 9 8 8 8 8 8 9 = n.e.. 5 @ e.Q.K d.7.B , = 6 9 9 0 ; 8 F.XX~.n.$.l V 9.m.r.O.@.-.>.g.T. X#Xb.",
"r.* 8 9 8 8 8 8 8 9 : B !.0 7 9 9 * b.@X' - ; 9 9 8 8 8 8 0 = A ).( 8 # 3 ; * N C.@Xi.~ v p 8 s L.f ",
"i., 9 8 8 8 8 8 8 9 @ i.t.& 9 8 9 - J D.+ 9 9 8 8 8 8 8 8 9 = O.^ . 9 9 8 9 0 o j e.. - , 7 9 % | $.",
"T.J = 0 9 8 8 8 8 6 a [.Z > 9 8 8 7 r J.j 6 8 8 8 8 8 8 8 8 6 :.p 8 8 8 8 8 8 3 B =.; 0 8 8 8 6 f 7.",
"*.m.; # ; 8 9 9 q * >.(., 8 8 8 8 9 - Z.! = 9 8 8 8 8 8 8 6 c o.- 9 8 8 8 8 8 , b ' - 9 8 8 8 9 : 5.",
"7.OXE.u.S , & = @ ; `.5.* 9 8 8 8 9 & d.7.& 9 8 8 8 8 8 9 = ^ ! - 9 8 8 8 8 8 , b ~ ; 9 8 8 8 9 - { ",
"^.N V r.Y.H.e.O.6.E.oXi 6 8 8 8 8 9 * &.F.= 9 8 8 8 8 8 9 - 9.B : 9 8 8 8 8 8 , b ~ ; 9 8 8 8 9 3 b ",
"W - : & 7 J k.OX>.T j.{ = 9 8 8 8 9 ; G ].i 7 8 8 8 8 8 6 h G.r 7 8 8 8 8 8 9 ; V ' - 9 8 8 8 8 ;  .",
", 9 9 0 9 . G 8.. = 6 ,.c 3 8 8 8 8 7 9 !.T - 9 8 8 8 9 = ,.R.; 8 8 8 8 8 8 9 - K =.= 9 8 8 8 6 O.v."
};
